<svg width="245" height="74" viewBox="0 0 245 74" fill="none" xmlns="http://www.w3.org/2000/svg">
<path d="M0.48 15.376H9.76V31.888L23.648 15.376H34.72L17.184 35.6L33.824 58H22.56L9.76 40.784V58H0.48V15.376ZM39.855 15.376H65.775V23.44H49.007V31.952H62.895V39.76H49.007V49.936H65.775V58H39.855V15.376ZM91.4715 61.584C93.5195 61.9253 95.1622 62.608 96.3995 63.632C97.6368 64.6987 98.2555 66.0427 98.2555 67.664C98.2555 69.3707 97.5088 70.7787 96.0155 71.888C94.5222 72.9973 92.7302 73.552 90.6395 73.552C89.1035 73.552 87.5888 73.2747 86.0955 72.72C84.6022 72.208 83.3648 71.5253 82.3835 70.672L84.3035 67.92C85.1995 68.56 86.1382 69.0507 87.1195 69.392C88.1435 69.776 89.0395 69.968 89.8075 69.968C91.3435 69.968 92.1115 69.3067 92.1115 67.984C92.1115 66.6187 90.5115 65.9787 87.3115 66.064L85.9675 65.168L88.2715 58.512C82.8955 57.6587 78.7142 55.4613 75.7275 51.92C72.7835 48.336 71.3115 43.6213 71.3115 37.776C71.3115 33.2107 72.2075 29.1787 73.9995 25.68C75.8342 22.1813 78.4155 19.4933 81.7435 17.616C85.0715 15.696 88.9115 14.736 93.2635 14.736C96.8048 14.736 100.218 15.376 103.504 16.656L101.776 24.912C98.8742 23.5893 96.0582 22.928 93.3275 22.928C89.4448 22.928 86.3728 24.208 84.1115 26.768C81.8502 29.2853 80.7195 32.656 80.7195 36.88C80.7195 41.1893 81.9142 44.5387 84.3035 46.928C86.6928 49.3173 89.9995 50.512 94.2235 50.512C96.9968 50.512 99.6848 50.064 102.288 49.168L103.696 57.04C100.581 58.2347 97.0395 58.832 93.0715 58.832H92.6875L91.4715 61.584ZM111.168 15.376H137.088V23.44H120.32V31.952H134.208V39.76H120.32V49.936H137.088V58H111.168V15.376ZM171.064 15.376H182.2L198.008 58H188.408L184.952 48.272H168.184L164.92 58H155.448L171.064 15.376ZM182.2 40.336L176.44 24.016L170.872 40.336H182.2ZM202.918 15.376H212.198V49.936H227.558V58H202.918V15.376ZM234.492 15.376H243.772V58H234.492V15.376ZM239.1 10.576C237.777 10.576 236.625 10.1067 235.644 9.168C234.705 8.18667 234.236 7.03467 234.236 5.712C234.236 4.38933 234.727 3.25866 235.708 2.32C236.732 1.33866 237.905 0.847996 239.228 0.847996C240.551 0.847996 241.681 1.33866 242.62 2.32C243.601 3.25866 244.092 4.38933 244.092 5.712C244.092 7.03467 243.58 8.18667 242.556 9.168C241.575 10.1067 240.423 10.576 239.1 10.576Z" fill="black"/>
</svg>
